<?xml version="1.0" standalone="no"?>
<!DOCTYPE svg PUBLIC "-//W3C//DTD SVG 20010904//EN"
 "http://www.w3.org/TR/2001/REC-SVG-20010904/DTD/svg10.dtd">
<svg version="1.0" xmlns="http://www.w3.org/2000/svg"
 width="791.000000pt" height="791.000000pt" viewBox="0 0 791.000000 791.000000"
 preserveAspectRatio="xMidYMid meet">
<metadata>
Created by potrace 1.14, written by Peter Selinger 2001-2017
</metadata>
<g transform="translate(0.000000,791.000000) scale(0.100000,-0.100000)"
fill="#000000" stroke="none">
<path d="M993 5308 c3 -7 231 -596 507 -1308 276 -712 505 -1298 509 -1302 3
-3 100 67 215 156 l210 162 88 229 88 230 0 289 c0 159 -3 287 -6 283 -3 -3
-101 -251 -218 -550 l-212 -544 -32 81 c-18 44 -224 577 -459 1184 l-426 1102
-135 0 c-103 0 -133 -3 -129 -12z"/>
<path d="M3030 4010 c0 -720 3 -1310 6 -1310 3 0 63 45 135 101 l129 101 0
1209 0 1209 -135 0 -135 0 0 -1310z"/>
<path d="M4062 5299 c-247 -41 -405 -185 -462 -422 -19 -78 -20 -120 -20 -895
0 -906 0 -900 67 -1042 67 -140 201 -239 373 -277 111 -24 331 -21 432 6 172
45 281 128 348 265 64 128 71 180 77 519 l5 297 -139 0 -140 0 -141 -112 -141
-113 140 -3 141 -3 -4 -197 c-5 -238 -17 -282 -100 -357 -72 -65 -155 -89
-292 -83 -91 3 -109 7 -169 36 -94 47 -143 113 -172 234 -12 53 -15 188 -15
843 0 728 2 786 19 872 37 177 131 319 265 397 36 21 66 40 66 42 0 7 -82 2
-138 -7z"/>
<path d="M4408 5300 c-245 -44 -402 -186 -465 -420 -17 -60 -18 -133 -18 -880
0 -743 2 -820 17 -871 24 -77 67 -132 125 -160 42 -21 62 -24 168 -24 104 0
125 3 160 22 78 42 113 98 129 207 l8 49 -33 -24 c-70 -49 -209 -33 -263 32
-46 54 -48 86 -44 854 4 799 2 776 71 867 112 147 407 172 564 47 91 -73 121
-164 131 -400 l7 -159 129 103 128 102 -6 106 c-11 191 -66 343 -150 416 -49
42 -158 96 -241 119 -69 18 -342 28 -417 14z"/>
<path d="M5982 5299 c-247 -41 -405 -185 -462 -422 -19 -78 -20 -120 -20 -895
0 -906 0 -900 67 -1042 67 -140 201 -239 373 -277 111 -24 331 -21 432 6 172
45 281 128 348 265 64 128 71 180 77 519 l5 297 -139 0 -140 0 -141 -112 -141
-113 140 -3 141 -3 -4 -197 c-5 -238 -17 -282 -100 -357 -72 -65 -155 -89
-292 -83 -91 3 -109 7 -169 36 -94 47 -143 113 -172 234 -12 53 -15 188 -15
843 0 728 2 786 19 872 37 177 131 319 265 397 36 21 66 40 66 42 0 7 -82 2
-138 -7z"/>
<path d="M6328 5300 c-245 -44 -402 -186 -465 -420 -17 -60 -18 -133 -18 -880
0 -743 2 -820 17 -871 24 -77 67 -132 125 -160 42 -21 62 -24 168 -24 104 0
125 3 160 22 78 42 113 98 129 207 l8 49 -33 -24 c-70 -49 -209 -33 -263 32
-46 54 -48 86 -44 854 4 799 2 776 71 867 112 147 407 172 564 47 91 -73 121
-164 131 -400 l7 -159 129 103 128 102 -6 106 c-11 191 -66 343 -150 416 -49
42 -158 96 -241 119 -69 18 -342 28 -417 14z"/>
<path d="M773 5183 l-142 -108 -1 -1217 0 -1218 135 0 135 0 2 1001 3 1000
370 -991 c203 -545 372 -995 375 -1001 4 -6 61 -8 147 -7 l141 3 -509 1315
c-280 723 -510 1319 -512 1323 -1 5 -66 -40 -144 -100z"/>
<path d="M2814 5167 l-131 -102 -303 -783 c-166 -430 -304 -791 -307 -802 -5
-17 88 -271 106 -292 4 -4 98 232 211 525 112 293 223 579 247 637 l42 105 1
-907 0 -908 135 0 135 0 0 1315 c0 723 -1 1315 -2 1314 -2 0 -62 -46 -134
-102z"/>
<path d="M4480 5009 c-84 -14 -140 -53 -172 -119 -15 -30 -30 -72 -34 -94 -6
-37 -6 -38 17 -30 13 5 65 9 116 9 99 0 123 -10 167 -69 19 -24 21 -44 24
-177 l3 -149 140 0 139 0 0 133 c0 322 -41 433 -177 481 -55 19 -157 26 -223
15z"/>
<path d="M6400 5009 c-84 -14 -140 -53 -172 -119 -15 -30 -30 -72 -34 -94 -6
-37 -6 -38 17 -30 13 5 65 9 116 9 99 0 123 -10 167 -69 19 -24 21 -44 24
-177 l3 -149 140 0 139 0 0 133 c0 322 -41 433 -177 481 -55 19 -157 26 -223
15z"/>
<path d="M970 3457 l0 -768 93 72 c50 39 111 86 134 103 l42 31 1 309 0 309
-126 341 c-70 188 -130 348 -135 356 -5 8 -9 -323 -9 -753z"/>
<path d="M4640 3925 l0 -115 156 0 156 0 -4 -337 c-4 -306 -7 -346 -26 -416
-46 -167 -138 -296 -266 -371 -36 -21 -66 -40 -66 -41 0 -6 113 8 180 21 219
45 369 187 427 407 14 52 17 134 20 515 l4 452 -290 0 -291 0 0 -115z"/>
<path d="M6560 3925 l0 -115 156 0 156 0 -4 -337 c-4 -306 -7 -346 -26 -416
-46 -167 -138 -296 -266 -371 -36 -21 -66 -40 -66 -41 0 -6 113 8 180 21 219
45 369 187 427 407 14 52 17 134 20 515 l4 452 -290 0 -291 0 0 -115z"/>
<path d="M4408 3902 l-148 -117 0 -108 c0 -87 3 -106 13 -100 8 4 75 55 150
113 l136 105 1 113 c0 61 -1 112 -2 111 -2 0 -69 -53 -150 -117z"/>
<path d="M6328 3902 l-148 -117 0 -108 c0 -87 3 -106 13 -100 8 4 75 55 150
113 l136 105 1 113 c0 61 -1 112 -2 111 -2 0 -69 -53 -150 -117z"/>
</g>
</svg>
